<svg xmlns="http://www.w3.org/2000/svg" role="img" viewBox="0 0 24 24" width="96px" height="96px">
<linearGradient id="warning-main-gradient">
    <stop stop-color="#22c55e" offset="0%"></stop>
    <stop stop-color="#f59e0b" offset="100%"></stop>
</linearGradient>
<path fill="url(#warning-main-gradient)" d="M11.996 14.23zm10.69 2.648c-0-1.346-.96-3.107-2.622-4.888 1.653-1.78 2.602-3.542 2.602-4.887-0-.41-.093-.783-.278-1.106-.793-1.375-3.264-1.683-6.365-.973C15.083 1.98 13.58 0 11.996 0c-1.59 0-3.097 1.99-4.03 5.043-3.113-.704-5.588-.39-6.38.988-.187.32-.275.69-.275 1.102 0 1.345.96 3.107 2.624 4.888-1.654 1.78-2.603 3.542-2.603 4.887 0 .41.09.783.275 1.106.792 1.374 3.263 1.683 6.365.973C8.904 22.02 10.41 24 11.996 24c1.59-0 3.097-1.99 4.032-5.043 3.11.704 5.587.39 6.38-.988.184-.318.277-.688.278-1.092zm-1.09-.005h-.006c0 .225-.044.406-.127.558-.382.666-1.835.955-3.704.73-.46-.054-.945-.142-1.44-.25.236-.96.417-2.006.534-3.107.905-.66 1.727-1.345 2.447-2.035 1.48 1.592 2.292 3.087 2.295 4.105zm-.02-9.77c0 1.012-.808 2.514-2.28 4.11-.72-.686-1.537-1.37-2.442-2.02-.117-1.107-.298-2.154-.538-3.113.49-.112.964-.195 1.42-.254 1.868-.23 3.32.054 3.707.714.09.19.127.4.132.563zm-3.05 4.882c-.468.455-.992.91-1.564 1.36.02-.44.034-.89.034-1.345-0-.46-.01-.915-.034-1.36.572.44 1.096.895 1.565 1.345zM15.9 12c0 .74-.034 1.477-.093 2.202-.582.406-1.203.802-1.86 1.183-.64.372-1.29.71-1.946 1.018-.655-.308-1.31-.646-1.95-1.013-.66-.38-1.288-.773-1.87-1.18-.063-.728-.098-1.466-.098-2.21-0-.74.035-1.477.093-2.202.582-.406 1.204-.802 1.86-1.183.64-.372 1.29-.71 1.946-1.018.657.303 1.313.646 1.954 1.013.66.38 1.286.773 1.868 1.18.064.728.098 1.466.098 2.21zm-.254-3.635c-.377-.24-.763-.48-1.16-.704-.39-.225-.782-.435-1.174-.635.656-.265 1.31-.49 1.947-.676.15.64.283 1.315.386 2.015zm0 7.26c-.103.695-.23 1.365-.387 2.006-.632-.18-1.282-.405-1.933-.66.39-.2.783-.41 1.174-.64.392-.225.774-.465 1.146-.705zm-.675 3.063c-.15.484-.317.944-.498 1.375-.74 1.732-1.708 2.852-2.476 2.852-.768-.005-1.74-1.125-2.475-2.857-.18-.42-.342-.88-.493-1.355.958-.28 1.956-.646 2.98-1.1 1.017.45 2.01.81 2.964 1.085zm-.004-13.395c-.96.278-1.957.645-2.98 1.1-1.017-.45-2.01-.812-2.964-1.086.15-.484.318-.944.5-1.37.737-1.732 1.706-2.852 2.474-2.852.768-0 1.742 1.12 2.476 2.852.18.42.342.88.494 1.356zm-4.28 11.678c-.657.265-1.312.49-1.948.676-.157-.64-.29-1.316-.39-2.016.375.24.762.48 1.158.705.39.225.788.435 1.18.636zm-.02-9.945c-.392.2-.783.41-1.175.64-.39.23-.772.465-1.143.705.102-.695.23-1.365.386-2.006.63.18 1.282.406 1.933.66zM7.68 17.92c-.493.112-.968.2-1.423.254-1.868.23-3.32-.054-3.708-.714-.09-.147-.128-.338-.128-.563-0-1.012.807-2.514 2.28-4.11.72.686 1.536 1.37 2.44 2.02.118 1.107.3 2.154.54 3.113zm-.01-11.83c-.234.96-.415 2.006-.532 3.107-.905.66-1.727 1.345-2.446 2.035-1.483-1.595-2.295-3.092-2.295-4.11.005-.22.05-.406.132-.553.38-.666 1.834-.955 3.703-.73.46.054.944.142 1.438.25zm-.64 4.56c-.02.44-.034.89-.034 1.345 0 .46.01.915.034 1.36-.572-.44-1.095-.895-1.565-1.345.47-.455.993-.91 1.565-1.36z"></path>
</svg>